<?xml version="1.0" encoding="UTF-8" standalone="no"?>
<svg style="background:#ffffff" width="363" height="230" xmlns="http://www.w3.org/2000/svg">
<text font-size="16" font-weight="bold" text-anchor="middle" fill="#000000" y="20" x="181" font-family="Arial">chr21</text>
<line x1="0" y2="75" stroke="#808080" x2="363" stroke-width="1" y1="75"/>
<rect x="0" width="363" height="70" fill="#F8F8F8" opacity="0.8" y="0"/>
<line x1="0" x2="0" y2="90" stroke="#800080" y1="80" stroke-width="2"/>
<line x1="0" x2="0" y2="180" stroke-width="2" y1="170" stroke="#800080"/>
<text font-size="16" text-anchor="middle" x="80" y="65" font-weight="bold" fill="#800080" font-family="Arial">10Mb</text>
<line x2="80" stroke-width="2" y1="80" y2="90" x1="80" stroke="#800080"/>
<line x2="80" x1="80" y1="170" stroke="#800080" y2="180" stroke-width="2"/>
<text text-anchor="middle" font-size="16" y="65" font-family="Arial" x="161" font-weight="bold" fill="#800080">20Mb</text>
<line x1="161" y2="90" y1="80" stroke-width="2" x2="161" stroke="#800080"/>
<line x1="161" x2="161" stroke="#800080" stroke-width="2" y2="180" y1="170"/>
<text font-family="Arial" y="65" text-anchor="middle" font-size="16" font-weight="bold" fill="#800080" x="241">30Mb</text>
<line x1="241" x2="241" stroke="#800080" stroke-width="2" y2="90" y1="80"/>
<line y1="170" x1="241" y2="180" stroke-width="2" stroke="#800080" x2="241"/>
<text fill="#800080" y="65" font-size="16" font-family="Arial" x="322" font-weight="bold" text-anchor="middle">40Mb</text>
<line x2="322" stroke="#800080" stroke-width="2" x1="322" y2="90" y1="80"/>
<line x1="322" stroke="#800080" x2="322" stroke-width="2" y1="170" y2="180"/>
<rect y="177" fill="#007700" x="0" width="1" height="3"/>
<rect fill="#770000" x="0" width="1" y="83" height="94"/>
<rect x="1" y="177" fill="#007700" width="1" height="3"/>
<rect y="82" width="1" x="1" height="95" fill="#770000"/>
<rect height="66" width="1" fill="#007700" y="114" x="2"/>
<rect y="81" x="2" fill="#770000" height="33" width="1"/>
<rect width="1" y="159" fill="#007700" height="21" x="3"/>
<rect x="3" height="78" fill="#770000" width="1" y="81"/>
<rect width="1" height="24" x="4" y="156" fill="#007700"/>
<rect x="4" fill="#770000" height="73" y="83" width="1"/>
<rect x="5" width="1" y="167" height="13" fill="#007700"/>
<rect width="1" fill="#770000" y="83" height="84" x="5"/>
<rect width="1" x="6" height="5" y="175" fill="#007700"/>
<rect x="6" y="84" width="1" fill="#770000" height="91"/>
<rect y="164" x="7" width="1" height="16" fill="#007700"/>
<rect fill="#770000" width="1" x="7" y="81" height="83"/>
<rect width="1" fill="#007700" height="6" x="8" y="174"/>
<rect x="8" fill="#770000" y="81" width="1" height="93"/>
<rect y="169" x="9" width="1" fill="#007700" height="11"/>
<rect fill="#770000" y="85" x="9" width="1" height="84"/>
<rect height="18" y="162" fill="#007700" x="10" width="1"/>
<rect x="10" height="74" fill="#770000" y="88" width="1"/>
<rect width="1" x="11" height="3" fill="#007700" y="177"/>
<rect fill="#770000" x="11" y="87" width="1" height="90"/>
<rect y="171" width="1" x="12" height="9" fill="#007700"/>
<rect x="12" fill="#770000" width="1" y="87" height="84"/>
<rect y="176" height="4" x="13" fill="#007700" width="1"/>
<rect x="13" height="90" fill="#770000" y="86" width="1"/>
<rect x="14" y="173" fill="#007700" width="1" height="7"/>
<rect x="14" y="91" width="1" height="82" fill="#770000"/>
<rect height="11" fill="#007700" x="15" width="1" y="169"/>
<rect height="81" fill="#770000" width="1" x="15" y="88"/>
<rect height="4" y="176" x="16" width="1" fill="#007700"/>
<rect x="16" y="82" width="1" height="94" fill="#770000"/>
<rect height="7" x="17" y="173" fill="#007700" width="1"/>
<rect height="91" fill="#770000" x="17" y="82" width="1"/>
<rect x="18" y="163" fill="#007700" width="1" height="17"/>
<rect x="18" y="82" width="1" fill="#770000" height="81"/>
<rect fill="#007700" y="173" x="19" height="7" width="1"/>
<rect width="1" fill="#770000" x="19" y="95" height="78"/>
<rect y="180" width="1" fill="#007700" x="20" height="0"/>
<rect height="25" x="20" y="155" fill="#770000" width="1"/>
<rect fill="#007700" y="159" height="21" x="21" width="1"/>
<rect fill="#770000" y="127" height="32" x="21" width="1"/>
<rect fill="#007700" x="22" width="1" y="158" height="22"/>
<rect y="92" height="66" fill="#770000" x="22" width="1"/>
<rect y="153" width="1" height="27" x="23" fill="#007700"/>
<rect height="70" fill="#770000" x="23" width="1" y="83"/>
<rect y="176" fill="#007700" width="1" height="4" x="24"/>
<rect y="88" x="24" height="88" fill="#770000" width="1"/>
<rect y="180" fill="#007700" height="0" width="1" x="25"/>
<rect width="1" height="88" x="25" y="92" fill="#770000"/>
<rect y="93" x="26" height="87" width="1" fill="#770000"/>
<rect x="27" height="90" fill="#770000" width="1" y="90"/>
<rect width="1" x="28" height="90" fill="#770000" y="90"/>
<rect x="29" y="93" width="1" height="87" fill="#770000"/>
<rect width="1" y="93" height="87" x="30" fill="#770000"/>
<rect x="31" height="80" y="100" fill="#770000" width="1"/>
<rect y="103" fill="#770000" x="32" width="1" height="77"/>
<rect height="75" width="1" y="105" x="33" fill="#770000"/>
<rect height="77" width="1" y="103" fill="#770000" x="34"/>
<rect width="1" height="77" x="35" y="103" fill="#770000"/>
<rect width="1" height="76" x="36" fill="#770000" y="104"/>
<rect width="1" y="102" height="78" x="37" fill="#770000"/>
<rect fill="#770000" y="104" width="1" x="38" height="76"/>
<rect fill="#770000" width="1" x="39" y="104" height="76"/>
<rect x="40" y="101" fill="#770000" width="1" height="79"/>
<rect width="1" x="41" y="105" height="75" fill="#770000"/>
<rect width="1" height="76" y="104" x="42" fill="#770000"/>
<rect width="1" y="105" height="75" fill="#770000" x="43"/>
<rect y="180" x="44" fill="#007700" width="1" height="0"/>
<rect width="1" height="85" fill="#770000" y="95" x="44"/>
<rect x="45" height="25" width="1" y="155" fill="#007700"/>
<rect x="45" y="85" width="1" fill="#770000" height="70"/>
<rect width="1" fill="#007700" x="46" y="149" height="31"/>
<rect width="1" height="68" fill="#770000" x="46" y="81"/>
<rect height="87" x="47" width="1" fill="#007700" y="93"/>
<rect x="47" height="12" fill="#770000" y="81" width="1"/>
<rect height="88" width="1" fill="#007700" x="48" y="92"/>
<rect y="81" width="1" height="11" x="48" fill="#770000"/>
<rect x="49" y="90" width="1" height="90" fill="#007700"/>
<rect fill="#770000" x="49" y="81" width="1" height="9"/>
<rect x="50" y="101" height="79" fill="#007700" width="1"/>
<rect fill="#770000" width="1" x="50" y="81" height="20"/>
<rect y="103" width="1" height="77" fill="#007700" x="51"/>
<rect fill="#770000" width="1" y="81" height="22" x="51"/>
<rect x="52" y="128" fill="#007700" width="1" height="52"/>
<rect x="52" fill="#770000" height="47" y="81" width="1"/>
<rect x="53" width="1" y="123" fill="#007700" height="57"/>
<rect width="1" fill="#770000" x="53" y="82" height="41"/>
<rect width="1" height="15" x="54" y="165" fill="#007700"/>
<rect x="54" height="74" width="1" fill="#770000" y="91"/>
<rect width="1" x="55" y="126" height="54" fill="#007700"/>
<rect height="42" width="1" x="55" fill="#770000" y="84"/>
<rect height="60" fill="#007700" width="1" x="56" y="120"/>
<rect x="56" y="81" width="1" fill="#770000" height="39"/>
<rect height="77" fill="#007700" y="103" width="1" x="57"/>
<rect height="21" x="57" width="1" fill="#770000" y="82"/>
<rect y="124" height="56" fill="#007700" width="1" x="58"/>
<rect width="1" x="58" y="99" height="25" fill="#770000"/>
<rect width="1" y="127" fill="#007700" x="59" height="53"/>
<rect y="83" height="44" x="59" width="1" fill="#770000"/>
<rect fill="#007700" width="1" x="60" height="5" y="175"/>
<rect width="1" y="82" x="60" height="93" fill="#770000"/>
<rect y="169" fill="#007700" x="61" width="1" height="11"/>
<rect fill="#770000" x="61" y="84" height="85" width="1"/>
<rect x="62" height="36" y="144" fill="#007700" width="1"/>
<rect y="84" fill="#770000" height="60" x="62" width="1"/>
<rect x="63" height="8" width="1" fill="#007700" y="172"/>
<rect x="63" y="84" fill="#770000" height="88" width="1"/>
<rect y="179" height="1" fill="#007700" x="64" width="1"/>
<rect fill="#770000" x="64" y="82" width="1" height="97"/>
<rect y="180" height="0" fill="#007700" x="65" width="1"/>
<rect width="1" y="83" fill="#770000" height="97" x="65"/>
<rect fill="#007700" height="0" y="180" width="1" x="66"/>
<rect y="85" x="66" height="95" width="1" fill="#770000"/>
<rect y="179" height="1" width="1" fill="#007700" x="67"/>
<rect fill="#770000" x="67" y="84" width="1" height="95"/>
<rect width="1" x="68" fill="#007700" height="1" y="179"/>
<rect height="92" x="68" fill="#770000" y="87" width="1"/>
<rect height="1" fill="#007700" y="179" width="1" x="69"/>
<rect width="1" height="92" y="87" fill="#770000" x="69"/>
<rect x="70" width="1" fill="#007700" height="4" y="176"/>
<rect x="70" width="1" y="96" fill="#770000" height="80"/>
<rect fill="#007700" height="3" y="177" x="71" width="1"/>
<rect height="87" width="1" fill="#770000" x="71" y="90"/>
<rect x="72" fill="#007700" y="179" height="1" width="1"/>
<rect width="1" y="92" height="87" x="72" fill="#770000"/>
<rect fill="#007700" height="6" y="174" x="73" width="1"/>
<rect height="84" fill="#770000" x="73" y="90" width="1"/>
<rect height="16" fill="#007700" x="74" y="164" width="1"/>
<rect fill="#770000" y="85" x="74" height="79" width="1"/>
<rect height="6" x="75" y="174" width="1" fill="#007700"/>
<rect x="75" y="81" width="1" height="93" fill="#770000"/>
<rect width="1" y="168" height="12" fill="#007700" x="76"/>
<rect x="76" height="86" fill="#770000" width="1" y="82"/>
<rect x="77" height="10" fill="#007700" width="1" y="170"/>
<rect y="81" x="77" width="1" fill="#770000" height="89"/>
<rect y="161" x="78" height="19" width="1" fill="#007700"/>
<rect x="78" y="81" height="80" fill="#770000" width="1"/>
<rect x="79" y="172" width="1" height="8" fill="#007700"/>
<rect x="79" y="81" height="91" fill="#770000" width="1"/>
<rect width="1" x="80" fill="#007700" y="171" height="9"/>
<rect x="80" fill="#770000" width="1" y="81" height="90"/>
<rect y="169" height="11" x="81" fill="#007700" width="1"/>
<rect x="81" y="81" height="88" fill="#770000" width="1"/>
<rect height="5" y="175" width="1" x="82" fill="#007700"/>
<rect y="82" x="82" height="93" width="1" fill="#770000"/>
<rect x="83" y="167" width="1" height="13" fill="#007700"/>
<rect fill="#770000" width="1" height="86" y="81" x="83"/>
<rect fill="#007700" x="84" height="8" y="172" width="1"/>
<rect height="91" x="84" fill="#770000" y="81" width="1"/>
<rect fill="#007700" height="21" x="85" width="1" y="159"/>
<rect y="82" width="1" height="77" x="85" fill="#770000"/>
<rect x="86" width="1" height="45" y="135" fill="#007700"/>
<rect y="81" fill="#770000" height="54" x="86" width="1"/>
<rect y="145" height="35" x="87" fill="#007700" width="1"/>
<rect height="64" y="81" fill="#770000" width="1" x="87"/>
<rect x="88" y="177" height="3" fill="#007700" width="1"/>
<rect x="88" y="85" width="1" height="92" fill="#770000"/>
<rect height="0" x="89" y="180" fill="#007700" width="1"/>
<rect fill="#770000" x="89" width="1" height="98" y="82"/>
<rect x="90" fill="#007700" height="2" y="178" width="1"/>
<rect fill="#770000" x="90" width="1" height="94" y="84"/>
<rect height="42" fill="#007700" x="91" y="138" width="1"/>
<rect x="91" fill="#770000" height="57" y="81" width="1"/>
<rect height="59" fill="#007700" x="92" width="1" y="121"/>
<rect x="92" height="40" y="81" fill="#770000" width="1"/>
<rect height="91" y="89" x="93" fill="#007700" width="1"/>
<rect width="1" x="93" fill="#770000" height="8" y="81"/>
<rect fill="#007700" height="89" x="94" y="91" width="1"/>
<rect y="81" height="10" width="1" fill="#770000" x="94"/>
<rect y="94" x="95" width="1" height="86" fill="#007700"/>
<rect height="13" x="95" y="81" width="1" fill="#770000"/>
<rect fill="#007700" x="96" y="94" width="1" height="86"/>
<rect fill="#770000" height="13" x="96" y="81" width="1"/>
<rect fill="#007700" width="1" x="97" y="85" height="95"/>
<rect height="4" x="97" fill="#770000" width="1" y="81"/>
<rect x="98" fill="#007700" height="95" width="1" y="85"/>
<rect x="98" fill="#770000" height="4" y="81" width="1"/>
<rect width="1" x="99" y="84" fill="#007700" height="96"/>
<rect fill="#770000" x="99" y="81" width="1" height="3"/>
<rect width="1" y="81" x="100" height="99" fill="#007700"/>
<rect height="0" fill="#770000" x="100" width="1" y="81"/>
<rect x="101" y="81" fill="#007700" height="99" width="1"/>
<rect y="81" fill="#770000" width="1" x="101" height="0"/>
<rect x="102" y="81" height="99" width="1" fill="#007700"/>
<rect fill="#770000" width="1" x="102" y="81" height="0"/>
<rect fill="#007700" width="1" x="103" y="81" height="99"/>
<rect fill="#770000" width="1" y="81" x="103" height="0"/>
<rect height="98" y="82" x="104" fill="#007700" width="1"/>
<rect x="104" width="1" height="1" fill="#770000" y="81"/>
<rect x="105" height="99" fill="#007700" width="1" y="81"/>
<rect width="1" height="0" x="105" y="81" fill="#770000"/>
<rect y="84" height="96" fill="#007700" width="1" x="106"/>
<rect x="106" height="3" y="81" width="1" fill="#770000"/>
<rect x="107" height="99" y="81" width="1" fill="#007700"/>
<rect fill="#770000" height="0" y="81" x="107" width="1"/>
<rect width="1" y="81" x="108" height="99" fill="#007700"/>
<rect x="108" height="0" y="81" fill="#770000" width="1"/>
<rect y="81" height="99" width="1" fill="#007700" x="109"/>
<rect x="109" width="1" fill="#770000" y="81" height="0"/>
<rect x="110" fill="#007700" height="99" y="81" width="1"/>
<rect x="110" height="0" fill="#770000" y="81" width="1"/>
<rect x="111" y="81" fill="#007700" height="99" width="1"/>
<rect y="81" fill="#770000" height="0" x="111" width="1"/>
<rect x="112" y="81" width="1" height="99" fill="#007700"/>
<rect width="1" height="0" y="81" fill="#770000" x="112"/>
<rect x="113" fill="#007700" width="1" y="81" height="99"/>
<rect height="0" fill="#770000" y="81" x="113" width="1"/>
<rect fill="#007700" y="82" width="1" height="98" x="114"/>
<rect x="114" height="1" y="81" width="1" fill="#770000"/>
<rect x="115" y="81" width="1" height="99" fill="#007700"/>
<rect x="115" width="1" y="81" height="0" fill="#770000"/>
<rect height="98" y="82" width="1" fill="#007700" x="116"/>
<rect y="81" x="116" height="1" fill="#770000" width="1"/>
<rect width="1" x="117" y="81" fill="#007700" height="99"/>
<rect height="0" fill="#770000" x="117" y="81" width="1"/>
<rect x="118" y="82" height="98" width="1" fill="#007700"/>
<rect height="0" y="82" fill="#770000" x="118" width="1"/>
<rect y="81" x="119" fill="#007700" height="99" width="1"/>
<rect x="119" height="0" fill="#770000" y="81" width="1"/>
<rect height="99" width="1" x="120" y="81" fill="#007700"/>
<rect height="0" fill="#770000" y="81" width="1" x="120"/>
<rect fill="#007700" x="121" y="82" width="1" height="98"/>
<rect width="1" y="81" x="121" fill="#770000" height="1"/>
<rect fill="#007700" y="81" height="99" width="1" x="122"/>
<rect x="122" y="81" width="1" fill="#770000" height="0"/>
<rect fill="#007700" height="99" y="81" x="123" width="1"/>
<rect fill="#770000" y="81" width="1" height="0" x="123"/>
<rect height="98" x="124" width="1" fill="#007700" y="82"/>
<rect height="1" y="81" width="1" x="124" fill="#770000"/>
<rect x="125" width="1" height="97" fill="#007700" y="83"/>
<rect width="1" height="1" x="125" y="82" fill="#770000"/>
<rect height="95" fill="#007700" width="1" y="85" x="126"/>
<rect y="81" x="126" width="1" height="4" fill="#770000"/>
<rect fill="#007700" height="99" width="1" x="127" y="81"/>
<rect width="1" y="81" x="127" height="0" fill="#770000"/>
<rect x="128" height="99" y="81" fill="#007700" width="1"/>
<rect width="1" height="0" fill="#770000" x="128" y="81"/>
<rect height="97" x="129" fill="#007700" y="83" width="1"/>
<rect y="81" width="1" height="2" x="129" fill="#770000"/>
<rect width="1" x="130" height="99" fill="#007700" y="81"/>
<rect height="0" x="130" y="81" width="1" fill="#770000"/>
<rect x="131" fill="#007700" width="1" height="99" y="81"/>
<rect y="81" width="1" height="0" x="131" fill="#770000"/>
<rect x="132" y="81" width="1" height="99" fill="#007700"/>
<rect height="0" x="132" y="81" fill="#770000" width="1"/>
<rect width="1" x="133" height="99" fill="#007700" y="81"/>
<rect height="0" width="1" fill="#770000" x="133" y="81"/>
<rect y="81" width="1" fill="#007700" x="134" height="99"/>
<rect fill="#770000" height="0" x="134" y="81" width="1"/>
<rect y="81" height="99" x="135" width="1" fill="#007700"/>
<rect height="0" width="1" fill="#770000" x="135" y="81"/>
<rect width="1" x="136" y="81" fill="#007700" height="99"/>
<rect width="1" y="81" height="0" x="136" fill="#770000"/>
<rect fill="#007700" x="137" height="99" y="81" width="1"/>
<rect height="0" width="1" x="137" y="81" fill="#770000"/>
<rect fill="#007700" height="96" x="138" y="84" width="1"/>
<rect x="138" y="81" fill="#770000" height="3" width="1"/>
<rect width="1" height="99" y="81" x="139" fill="#007700"/>
<rect fill="#770000" x="139" width="1" y="81" height="0"/>
<rect x="140" y="83" width="1" fill="#007700" height="97"/>
<rect height="2" width="1" fill="#770000" x="140" y="81"/>
<rect y="81" width="1" x="141" height="99" fill="#007700"/>
<rect height="0" width="1" fill="#770000" x="141" y="81"/>
<rect x="142" y="81" height="99" width="1" fill="#007700"/>
<rect y="81" x="142" height="0" fill="#770000" width="1"/>
<rect width="1" x="143" y="81" height="99" fill="#007700"/>
<rect fill="#770000" x="143" y="81" width="1" height="0"/>
<rect width="1" height="99" y="81" fill="#007700" x="144"/>
<rect y="81" height="0" fill="#770000" x="144" width="1"/>
<rect x="145" fill="#007700" y="81" height="99" width="1"/>
<rect fill="#770000" width="1" x="145" y="81" height="0"/>
<rect height="99" y="81" width="1" fill="#007700" x="146"/>
<rect y="81" x="146" width="1" fill="#770000" height="0"/>
<rect y="82" width="1" x="147" fill="#007700" height="98"/>
<rect width="1" y="81" fill="#770000" height="1" x="147"/>
<rect height="99" x="148" width="1" y="81" fill="#007700"/>
<rect width="1" height="0" fill="#770000" x="148" y="81"/>
<rect height="98" x="149" width="1" y="82" fill="#007700"/>
<rect x="149" fill="#770000" width="1" height="1" y="81"/>
<rect y="82" x="150" fill="#007700" height="98" width="1"/>
<rect height="0" y="82" width="1" x="150" fill="#770000"/>
<rect width="1" x="151" y="81" height="99" fill="#007700"/>
<rect width="1" height="0" y="81" x="151" fill="#770000"/>
<rect fill="#007700" width="1" y="81" height="99" x="152"/>
<rect y="81" x="152" fill="#770000" height="0" width="1"/>
<rect fill="#007700" y="81" width="1" x="153" height="99"/>
<rect height="0" fill="#770000" x="153" y="81" width="1"/>
<rect x="154" y="81" width="1" fill="#007700" height="99"/>
<rect y="81" x="154" width="1" height="0" fill="#770000"/>
<rect height="99" y="81" x="155" width="1" fill="#007700"/>
<rect x="155" fill="#770000" height="0" width="1" y="81"/>
<rect y="81" fill="#007700" height="99" x="156" width="1"/>
<rect y="81" height="0" x="156" fill="#770000" width="1"/>
<rect width="1" y="81" x="157" height="99" fill="#007700"/>
<rect height="0" x="157" y="81" width="1" fill="#770000"/>
<rect height="99" x="158" fill="#007700" y="81" width="1"/>
<rect y="81" width="1" fill="#770000" x="158" height="0"/>
<rect width="1" height="99" x="159" y="81" fill="#007700"/>
<rect width="1" height="0" y="81" x="159" fill="#770000"/>
<rect fill="#007700" height="99" x="160" y="81" width="1"/>
<rect fill="#770000" width="1" x="160" y="81" height="0"/>
<rect height="99" x="161" fill="#007700" y="81" width="1"/>
<rect width="1" x="161" fill="#770000" y="81" height="0"/>
<rect y="81" x="162" fill="#007700" height="99" width="1"/>
<rect y="81" width="1" height="0" x="162" fill="#770000"/>
<rect y="81" width="1" height="99" fill="#007700" x="163"/>
<rect x="163" y="81" fill="#770000" height="0" width="1"/>
<rect fill="#007700" height="99" y="81" width="1" x="164"/>
<rect y="81" height="0" width="1" fill="#770000" x="164"/>
<rect fill="#007700" x="165" height="99" y="81" width="1"/>
<rect y="81" fill="#770000" x="165" width="1" height="0"/>
<rect x="166" width="1" fill="#007700" y="81" height="99"/>
<rect fill="#770000" y="81" x="166" width="1" height="0"/>
<rect y="81" x="167" fill="#007700" height="99" width="1"/>
<rect y="81" height="0" fill="#770000" width="1" x="167"/>
<rect width="1" height="99" x="168" y="81" fill="#007700"/>
<rect width="1" y="81" height="0" x="168" fill="#770000"/>
<rect y="82" x="169" width="1" fill="#007700" height="98"/>
<rect height="1" width="1" y="81" fill="#770000" x="169"/>
<rect width="1" height="99" x="170" fill="#007700" y="81"/>
<rect fill="#770000" width="1" x="170" height="0" y="81"/>
<rect x="171" width="1" fill="#007700" y="82" height="98"/>
<rect height="1" fill="#770000" width="1" x="171" y="81"/>
<rect y="81" height="99" fill="#007700" width="1" x="172"/>
<rect x="172" y="81" width="1" height="0" fill="#770000"/>
<rect y="81" x="173" width="1" fill="#007700" height="99"/>
<rect x="173" y="81" height="0" width="1" fill="#770000"/>
<rect y="81" width="1" fill="#007700" height="99" x="174"/>
<rect x="174" y="81" width="1" fill="#770000" height="0"/>
<rect fill="#007700" x="175" y="81" width="1" height="99"/>
<rect y="81" width="1" height="0" x="175" fill="#770000"/>
<rect x="176" y="81" height="99" width="1" fill="#007700"/>
<rect x="176" y="81" height="0" width="1" fill="#770000"/>
<rect fill="#007700" width="1" height="99" y="81" x="177"/>
<rect fill="#770000" height="0" x="177" y="81" width="1"/>
<rect x="178" y="81" width="1" height="99" fill="#007700"/>
<rect height="0" fill="#770000" x="178" y="81" width="1"/>
<rect height="99" width="1" x="179" y="81" fill="#007700"/>
<rect x="179" fill="#770000" y="81" width="1" height="0"/>
<rect height="99" x="180" y="81" width="1" fill="#007700"/>
<rect width="1" height="0" x="180" fill="#770000" y="81"/>
<rect width="1" x="181" height="99" fill="#007700" y="81"/>
<rect x="181" fill="#770000" height="0" y="81" width="1"/>
<rect y="81" height="99" x="182" width="1" fill="#007700"/>
<rect x="182" height="0" width="1" fill="#770000" y="81"/>
<rect width="1" x="183" fill="#007700" height="99" y="81"/>
<rect y="81" x="183" height="0" width="1" fill="#770000"/>
<rect y="81" height="99" fill="#007700" x="184" width="1"/>
<rect width="1" height="0" x="184" y="81" fill="#770000"/>
<rect x="185" height="99" fill="#007700" y="81" width="1"/>
<rect width="1" y="81" height="0" fill="#770000" x="185"/>
<rect fill="#007700" width="1" y="81" x="186" height="99"/>
<rect x="186" y="81" height="0" fill="#770000" width="1"/>
<rect y="82" height="98" fill="#007700" width="1" x="187"/>
<rect y="81" width="1" height="1" fill="#770000" x="187"/>
<rect x="188" y="81" width="1" fill="#007700" height="99"/>
<rect y="81" fill="#770000" height="0" x="188" width="1"/>
<rect height="99" fill="#007700" x="189" width="1" y="81"/>
<rect width="1" fill="#770000" x="189" y="81" height="0"/>
<rect fill="#007700" width="1" x="190" y="81" height="99"/>
<rect y="81" height="0" width="1" fill="#770000" x="190"/>
<rect height="99" fill="#007700" x="191" y="81" width="1"/>
<rect y="81" fill="#770000" x="191" width="1" height="0"/>
<rect width="1" fill="#007700" y="81" height="99" x="192"/>
<rect y="81" fill="#770000" width="1" x="192" height="0"/>
<rect x="193" height="99" fill="#007700" width="1" y="81"/>
<rect height="0" x="193" y="81" width="1" fill="#770000"/>
<rect width="1" fill="#007700" x="194" y="81" height="99"/>
<rect y="81" fill="#770000" height="0" width="1" x="194"/>
<rect fill="#007700" width="1" height="96" x="195" y="84"/>
<rect x="195" width="1" fill="#770000" height="3" y="81"/>
<rect height="99" fill="#007700" x="196" y="81" width="1"/>
<rect y="81" x="196" fill="#770000" width="1" height="0"/>
<rect x="197" fill="#007700" y="81" height="99" width="1"/>
<rect x="197" y="81" height="0" fill="#770000" width="1"/>
<rect width="1" y="81" fill="#007700" x="198" height="99"/>
<rect fill="#770000" height="0" x="198" y="81" width="1"/>
<rect y="81" fill="#007700" height="99" x="199" width="1"/>
<rect height="0" width="1" y="81" fill="#770000" x="199"/>
<rect width="1" x="200" height="99" fill="#007700" y="81"/>
<rect x="200" width="1" height="0" y="81" fill="#770000"/>
<rect height="99" fill="#007700" x="201" width="1" y="81"/>
<rect y="81" height="0" x="201" width="1" fill="#770000"/>
<rect y="81" fill="#007700" width="1" x="202" height="99"/>
<rect y="81" height="0" x="202" fill="#770000" width="1"/>
<rect width="1" x="203" fill="#007700" height="99" y="81"/>
<rect fill="#770000" height="0" width="1" x="203" y="81"/>
<rect width="1" height="99" fill="#007700" y="81" x="204"/>
<rect fill="#770000" width="1" x="204" y="81" height="0"/>
<rect x="205" y="81" width="1" height="99" fill="#007700"/>
<rect y="81" width="1" x="205" height="0" fill="#770000"/>
<rect width="1" y="81" x="206" fill="#007700" height="99"/>
<rect y="81" width="1" x="206" height="0" fill="#770000"/>
<rect fill="#007700" x="207" y="81" height="99" width="1"/>
<rect x="207" height="0" y="81" fill="#770000" width="1"/>
<rect height="97" y="83" width="1" x="208" fill="#007700"/>
<rect height="2" fill="#770000" y="81" x="208" width="1"/>
<rect y="84" width="1" height="96" x="209" fill="#007700"/>
<rect y="81" x="209" width="1" height="3" fill="#770000"/>
<rect fill="#007700" y="81" width="1" x="210" height="99"/>
<rect y="81" height="0" fill="#770000" x="210" width="1"/>
<rect x="211" height="97" y="83" fill="#007700" width="1"/>
<rect width="1" y="82" fill="#770000" x="211" height="1"/>
<rect fill="#007700" x="212" y="81" width="1" height="99"/>
<rect fill="#770000" y="81" width="1" height="0" x="212"/>
<rect x="213" y="81" width="1" fill="#007700" height="99"/>
<rect y="81" width="1" fill="#770000" height="0" x="213"/>
<rect width="1" x="214" fill="#007700" height="99" y="81"/>
<rect width="1" y="81" x="214" fill="#770000" height="0"/>
<rect height="99" width="1" x="215" y="81" fill="#007700"/>
<rect x="215" y="81" height="0" width="1" fill="#770000"/>
<rect y="81" width="1" x="216" fill="#007700" height="99"/>
<rect width="1" height="0" fill="#770000" y="81" x="216"/>
<rect height="98" fill="#007700" y="82" width="1" x="217"/>
<rect fill="#770000" y="81" x="217" height="1" width="1"/>
<rect fill="#007700" x="218" height="99" width="1" y="81"/>
<rect width="1" x="218" height="0" fill="#770000" y="81"/>
<rect fill="#007700" width="1" x="219" height="99" y="81"/>
<rect width="1" y="81" height="0" x="219" fill="#770000"/>
<rect y="82" height="98" fill="#007700" width="1" x="220"/>
<rect y="81" width="1" x="220" height="1" fill="#770000"/>
<rect y="81" x="221" height="99" width="1" fill="#007700"/>
<rect width="1" fill="#770000" height="0" x="221" y="81"/>
<rect x="222" y="81" width="1" height="99" fill="#007700"/>
<rect y="81" height="0" fill="#770000" x="222" width="1"/>
<rect y="82" x="223" fill="#007700" height="98" width="1"/>
<rect height="1" y="81" x="223" width="1" fill="#770000"/>
<rect y="81" width="1" fill="#007700" height="99" x="224"/>
<rect fill="#770000" width="1" x="224" y="81" height="0"/>
<rect x="225" y="81" width="1" height="99" fill="#007700"/>
<rect height="0" fill="#770000" x="225" y="81" width="1"/>
<rect width="1" y="81" x="226" height="99" fill="#007700"/>
<rect x="226" height="0" fill="#770000" width="1" y="81"/>
<rect x="227" height="99" fill="#007700" width="1" y="81"/>
<rect height="0" x="227" fill="#770000" width="1" y="81"/>
<rect width="1" x="228" fill="#007700" height="99" y="81"/>
<rect height="0" width="1" y="81" fill="#770000" x="228"/>
<rect x="229" y="81" fill="#007700" width="1" height="99"/>
<rect width="1" y="81" height="0" fill="#770000" x="229"/>
<rect fill="#007700" y="81" height="99" width="1" x="230"/>
<rect height="0" fill="#770000" y="81" width="1" x="230"/>
<rect x="231" y="81" height="99" fill="#007700" width="1"/>
<rect height="0" y="81" x="231" width="1" fill="#770000"/>
<rect x="232" y="81" width="1" height="99" fill="#007700"/>
<rect height="0" y="81" x="232" fill="#770000" width="1"/>
<rect height="99" width="1" fill="#007700" y="81" x="233"/>
<rect width="1" y="81" x="233" height="0" fill="#770000"/>
<rect x="234" width="1" y="81" height="99" fill="#007700"/>
<rect width="1" height="0" y="81" fill="#770000" x="234"/>
<rect fill="#007700" width="1" height="97" y="83" x="235"/>
<rect height="2" fill="#770000" x="235" width="1" y="81"/>
<rect fill="#007700" height="99" x="236" y="81" width="1"/>
<rect x="236" y="81" height="0" width="1" fill="#770000"/>
<rect x="237" height="99" width="1" y="81" fill="#007700"/>
<rect x="237" y="81" height="0" fill="#770000" width="1"/>
<rect width="1" fill="#007700" x="238" height="99" y="81"/>
<rect width="1" fill="#770000" y="81" x="238" height="0"/>
<rect x="239" fill="#007700" height="99" width="1" y="81"/>
<rect x="239" fill="#770000" height="0" width="1" y="81"/>
<rect y="81" height="99" width="1" fill="#007700" x="240"/>
<rect x="240" width="1" height="0" fill="#770000" y="81"/>
<rect height="99" width="1" y="81" x="241" fill="#007700"/>
<rect width="1" fill="#770000" x="241" y="81" height="0"/>
<rect x="242" width="1" fill="#007700" y="81" height="99"/>
<rect width="1" y="81" fill="#770000" x="242" height="0"/>
<rect height="99" fill="#007700" y="81" width="1" x="243"/>
<rect fill="#770000" x="243" y="81" width="1" height="0"/>
<rect x="244" height="99" width="1" fill="#007700" y="81"/>
<rect y="81" height="0" width="1" fill="#770000" x="244"/>
<rect x="245" height="99" width="1" fill="#007700" y="81"/>
<rect height="0" width="1" x="245" y="81" fill="#770000"/>
<rect height="98" fill="#007700" x="246" y="82" width="1"/>
<rect fill="#770000" width="1" y="81" height="1" x="246"/>
<rect width="1" fill="#007700" x="247" height="99" y="81"/>
<rect y="81" height="0" fill="#770000" width="1" x="247"/>
<rect fill="#007700" width="1" y="81" x="248" height="99"/>
<rect y="81" height="0" fill="#770000" x="248" width="1"/>
<rect width="1" x="249" height="99" fill="#007700" y="81"/>
<rect height="0" x="249" fill="#770000" y="81" width="1"/>
<rect x="250" y="81" width="1" height="99" fill="#007700"/>
<rect width="1" x="250" fill="#770000" height="0" y="81"/>
<rect x="251" width="1" height="99" fill="#007700" y="81"/>
<rect height="0" fill="#770000" y="81" x="251" width="1"/>
<rect x="252" fill="#007700" y="81" width="1" height="99"/>
<rect y="81" fill="#770000" x="252" height="0" width="1"/>
<rect y="81" width="1" x="253" fill="#007700" height="99"/>
<rect width="1" y="81" fill="#770000" x="253" height="0"/>
<rect x="254" height="99" y="81" width="1" fill="#007700"/>
<rect fill="#770000" x="254" y="81" width="1" height="0"/>
<rect width="1" fill="#007700" x="255" y="85" height="95"/>
<rect x="255" fill="#770000" height="3" width="1" y="82"/>
<rect width="1" x="256" height="99" y="81" fill="#007700"/>
<rect width="1" height="0" y="81" fill="#770000" x="256"/>
<rect height="99" y="81" width="1" x="257" fill="#007700"/>
<rect height="0" y="81" width="1" x="257" fill="#770000"/>
<rect y="81" fill="#007700" x="258" width="1" height="99"/>
<rect x="258" width="1" fill="#770000" height="0" y="81"/>
<rect y="81" x="259" width="1" height="99" fill="#007700"/>
<rect width="1" y="81" fill="#770000" x="259" height="0"/>
<rect x="260" width="1" fill="#007700" height="97" y="83"/>
<rect y="81" x="260" fill="#770000" height="2" width="1"/>
<rect fill="#007700" x="261" y="81" height="99" width="1"/>
<rect y="81" width="1" x="261" height="0" fill="#770000"/>
<rect fill="#007700" width="1" y="81" x="262" height="99"/>
<rect x="262" height="0" y="81" width="1" fill="#770000"/>
<rect fill="#007700" width="1" x="263" y="81" height="99"/>
<rect x="263" y="81" fill="#770000" height="0" width="1"/>
<rect y="81" width="1" height="99" fill="#007700" x="264"/>
<rect height="0" y="81" fill="#770000" width="1" x="264"/>
<rect x="265" y="81" width="1" height="99" fill="#007700"/>
<rect x="265" height="0" y="81" fill="#770000" width="1"/>
<rect width="1" y="81" x="266" fill="#007700" height="99"/>
<rect y="81" height="0" x="266" fill="#770000" width="1"/>
<rect fill="#007700" height="99" y="81" x="267" width="1"/>
<rect x="267" y="81" width="1" height="0" fill="#770000"/>
<rect height="99" width="1" x="268" fill="#007700" y="81"/>
<rect fill="#770000" y="81" height="0" width="1" x="268"/>
<rect x="269" width="1" y="81" height="99" fill="#007700"/>
<rect x="269" height="0" y="81" width="1" fill="#770000"/>
<rect height="99" width="1" y="81" x="270" fill="#007700"/>
<rect y="81" height="0" x="270" width="1" fill="#770000"/>
<rect height="99" y="81" width="1" x="271" fill="#007700"/>
<rect x="271" y="81" height="0" fill="#770000" width="1"/>
<rect y="84" fill="#007700" x="272" height="96" width="1"/>
<rect x="272" fill="#770000" y="81" width="1" height="3"/>
<rect y="81" width="1" x="273" fill="#007700" height="99"/>
<rect x="273" fill="#770000" height="0" width="1" y="81"/>
<rect fill="#007700" x="274" height="99" width="1" y="81"/>
<rect width="1" x="274" height="0" y="81" fill="#770000"/>
<rect x="275" width="1" y="81" fill="#007700" height="99"/>
<rect height="0" width="1" x="275" y="81" fill="#770000"/>
<rect height="99" x="276" fill="#007700" y="81" width="1"/>
<rect x="276" width="1" height="0" y="81" fill="#770000"/>
<rect x="277" width="1" height="99" y="81" fill="#007700"/>
<rect height="0" width="1" x="277" y="81" fill="#770000"/>
<rect fill="#007700" y="81" width="1" height="99" x="278"/>
<rect x="278" y="81" fill="#770000" width="1" height="0"/>
<rect width="1" fill="#007700" x="279" height="99" y="81"/>
<rect x="279" height="0" y="81" fill="#770000" width="1"/>
<rect height="99" width="1" y="81" x="280" fill="#007700"/>
<rect x="280" y="81" width="1" height="0" fill="#770000"/>
<rect width="1" x="281" fill="#007700" height="99" y="81"/>
<rect fill="#770000" x="281" height="0" width="1" y="81"/>
<rect fill="#007700" x="282" y="81" width="1" height="99"/>
<rect height="0" x="282" y="81" width="1" fill="#770000"/>
<rect x="283" width="1" y="81" height="99" fill="#007700"/>
<rect height="0" y="81" width="1" fill="#770000" x="283"/>
<rect fill="#007700" x="284" y="81" height="99" width="1"/>
<rect height="0" y="81" width="1" fill="#770000" x="284"/>
<rect width="1" fill="#007700" x="285" y="81" height="99"/>
<rect x="285" width="1" height="0" y="81" fill="#770000"/>
<rect height="99" fill="#007700" width="1" y="81" x="286"/>
<rect y="81" x="286" width="1" height="0" fill="#770000"/>
<rect height="99" fill="#007700" y="81" width="1" x="287"/>
<rect width="1" height="0" x="287" fill="#770000" y="81"/>
<rect x="288" y="81" width="1" height="99" fill="#007700"/>
<rect fill="#770000" height="0" y="81" width="1" x="288"/>
<rect width="1" height="99" x="289" fill="#007700" y="81"/>
<rect x="289" height="0" width="1" y="81" fill="#770000"/>
<rect width="1" height="98" x="290" fill="#007700" y="82"/>
<rect fill="#770000" width="1" y="81" x="290" height="1"/>
<rect x="291" y="81" width="1" height="99" fill="#007700"/>
<rect width="1" x="291" height="0" fill="#770000" y="81"/>
<rect height="99" fill="#007700" y="81" x="292" width="1"/>
<rect height="0" fill="#770000" x="292" y="81" width="1"/>
<rect width="1" height="99" fill="#007700" y="81" x="293"/>
<rect height="0" fill="#770000" width="1" x="293" y="81"/>
<rect fill="#007700" x="294" width="1" y="81" height="99"/>
<rect y="81" x="294" fill="#770000" width="1" height="0"/>
<rect x="295" y="81" width="1" height="99" fill="#007700"/>
<rect width="1" height="0" fill="#770000" x="295" y="81"/>
<rect height="99" y="81" width="1" fill="#007700" x="296"/>
<rect height="0" fill="#770000" x="296" width="1" y="81"/>
<rect fill="#007700" x="297" y="81" height="99" width="1"/>
<rect x="297" y="81" width="1" fill="#770000" height="0"/>
<rect height="99" width="1" x="298" y="81" fill="#007700"/>
<rect y="81" x="298" width="1" height="0" fill="#770000"/>
<rect fill="#007700" height="98" y="82" x="299" width="1"/>
<rect height="1" fill="#770000" x="299" y="81" width="1"/>
<rect width="1" height="99" fill="#007700" x="300" y="81"/>
<rect x="300" fill="#770000" width="1" height="0" y="81"/>
<rect x="301" y="81" width="1" height="99" fill="#007700"/>
<rect fill="#770000" height="0" y="81" x="301" width="1"/>
<rect fill="#007700" y="81" width="1" x="302" height="99"/>
<rect width="1" fill="#770000" y="81" x="302" height="0"/>
<rect y="81" height="99" x="303" width="1" fill="#007700"/>
<rect x="303" width="1" y="81" fill="#770000" height="0"/>
<rect fill="#007700" width="1" x="304" height="99" y="81"/>
<rect fill="#770000" y="81" x="304" width="1" height="0"/>
<rect y="81" fill="#007700" height="99" width="1" x="305"/>
<rect fill="#770000" y="81" width="1" height="0" x="305"/>
<rect x="306" fill="#007700" y="81" width="1" height="99"/>
<rect fill="#770000" width="1" x="306" height="0" y="81"/>
<rect x="307" width="1" fill="#007700" y="81" height="99"/>
<rect fill="#770000" x="307" y="81" width="1" height="0"/>
<rect y="84" fill="#007700" height="96" x="308" width="1"/>
<rect fill="#770000" x="308" y="82" width="1" height="2"/>
<rect y="86" fill="#007700" x="309" width="1" height="94"/>
<rect x="309" y="81" fill="#770000" height="5" width="1"/>
<rect fill="#007700" x="310" y="82" height="98" width="1"/>
<rect height="0" x="310" y="82" fill="#770000" width="1"/>
<rect height="99" fill="#007700" y="81" x="311" width="1"/>
<rect width="1" height="0" y="81" fill="#770000" x="311"/>
<rect width="1" height="99" y="81" x="312" fill="#007700"/>
<rect width="1" fill="#770000" height="0" x="312" y="81"/>
<rect x="313" fill="#007700" width="1" height="99" y="81"/>
<rect x="313" width="1" height="0" y="81" fill="#770000"/>
<rect x="314" height="99" fill="#007700" y="81" width="1"/>
<rect fill="#770000" x="314" y="81" width="1" height="0"/>
<rect x="315" height="99" fill="#007700" y="81" width="1"/>
<rect x="315" fill="#770000" width="1" height="0" y="81"/>
<rect y="82" height="98" fill="#007700" x="316" width="1"/>
<rect x="316" fill="#770000" height="1" width="1" y="81"/>
<rect y="81" fill="#007700" x="317" width="1" height="99"/>
<rect width="1" x="317" y="81" fill="#770000" height="0"/>
<rect x="318" height="99" fill="#007700" width="1" y="81"/>
<rect height="0" y="81" width="1" x="318" fill="#770000"/>
<rect y="82" height="98" fill="#007700" x="319" width="1"/>
<rect x="319" height="0" fill="#770000" y="82" width="1"/>
<rect y="81" x="320" fill="#007700" height="99" width="1"/>
<rect y="81" height="0" x="320" fill="#770000" width="1"/>
<rect fill="#007700" x="321" y="81" width="1" height="99"/>
<rect x="321" width="1" fill="#770000" y="81" height="0"/>
<rect fill="#007700" y="81" width="1" x="322" height="99"/>
<rect x="322" height="0" fill="#770000" y="81" width="1"/>
<rect width="1" height="97" y="83" fill="#007700" x="323"/>
<rect width="1" y="82" x="323" height="1" fill="#770000"/>
<rect width="1" y="81" height="99" fill="#007700" x="324"/>
<rect y="81" width="1" x="324" height="0" fill="#770000"/>
<rect y="81" height="99" width="1" fill="#007700" x="325"/>
<rect x="325" y="81" fill="#770000" height="0" width="1"/>
<rect width="1" y="81" fill="#007700" x="326" height="99"/>
<rect width="1" y="81" x="326" height="0" fill="#770000"/>
<rect y="81" height="99" x="327" width="1" fill="#007700"/>
<rect x="327" y="81" fill="#770000" width="1" height="0"/>
<rect width="1" x="328" y="81" height="99" fill="#007700"/>
<rect x="328" y="81" fill="#770000" width="1" height="0"/>
<rect width="1" fill="#007700" x="329" y="82" height="98"/>
<rect height="0" fill="#770000" width="1" x="329" y="82"/>
<rect width="1" y="81" x="330" fill="#007700" height="99"/>
<rect fill="#770000" y="81" x="330" width="1" height="0"/>
<rect x="331" height="99" y="81" fill="#007700" width="1"/>
<rect height="0" fill="#770000" y="81" x="331" width="1"/>
<rect x="332" width="1" height="98" y="82" fill="#007700"/>
<rect x="332" y="82" height="0" fill="#770000" width="1"/>
<rect y="81" height="99" x="333" fill="#007700" width="1"/>
<rect fill="#770000" x="333" height="0" y="81" width="1"/>
<rect height="97" x="334" fill="#007700" y="83" width="1"/>
<rect width="1" height="2" x="334" y="81" fill="#770000"/>
<rect fill="#007700" x="335" width="1" height="91" y="89"/>
<rect x="335" width="1" y="85" height="4" fill="#770000"/>
<rect fill="#007700" y="82" width="1" height="98" x="336"/>
<rect fill="#770000" height="0" width="1" y="82" x="336"/>
<rect y="84" width="1" fill="#007700" height="96" x="337"/>
<rect height="1" fill="#770000" y="83" x="337" width="1"/>
<rect x="338" width="1" height="99" y="81" fill="#007700"/>
<rect width="1" y="81" height="0" x="338" fill="#770000"/>
<rect width="1" x="339" height="99" fill="#007700" y="81"/>
<rect x="339" fill="#770000" y="81" width="1" height="0"/>
<rect x="340" width="1" height="99" fill="#007700" y="81"/>
<rect y="81" height="0" fill="#770000" x="340" width="1"/>
<rect y="81" x="341" fill="#007700" height="99" width="1"/>
<rect width="1" y="81" x="341" height="0" fill="#770000"/>
<rect y="81" height="99" fill="#007700" x="342" width="1"/>
<rect height="0" y="81" fill="#770000" width="1" x="342"/>
<rect x="343" height="99" fill="#007700" y="81" width="1"/>
<rect height="0" fill="#770000" y="81" x="343" width="1"/>
<rect height="94" x="344" y="86" width="1" fill="#007700"/>
<rect width="1" height="3" fill="#770000" x="344" y="83"/>
<rect y="82" width="1" x="345" height="98" fill="#007700"/>
<rect y="81" width="1" x="345" height="1" fill="#770000"/>
<rect x="346" y="81" height="99" fill="#007700" width="1"/>
<rect height="0" fill="#770000" x="346" y="81" width="1"/>
<rect x="347" fill="#007700" height="98" y="82" width="1"/>
<rect x="347" width="1" height="0" fill="#770000" y="82"/>
<rect height="98" y="82" fill="#007700" x="348" width="1"/>
<rect x="348" width="1" height="1" y="81" fill="#770000"/>
<rect fill="#007700" height="98" y="82" width="1" x="349"/>
<rect y="82" x="349" height="0" width="1" fill="#770000"/>
<rect y="82" height="98" width="1" x="350" fill="#007700"/>
<rect height="1" fill="#770000" y="81" x="350" width="1"/>
<rect fill="#007700" y="83" width="1" height="97" x="351"/>
<rect width="1" y="81" height="2" x="351" fill="#770000"/>
<rect x="352" width="1" y="82" height="98" fill="#007700"/>
<rect y="81" width="1" height="1" x="352" fill="#770000"/>
<rect fill="#007700" x="353" width="1" y="86" height="94"/>
<rect fill="#770000" x="353" height="2" y="84" width="1"/>
<rect x="354" y="84" width="1" height="96" fill="#007700"/>
<rect height="3" fill="#770000" x="354" width="1" y="81"/>
<rect y="83" fill="#007700" x="355" height="97" width="1"/>
<rect height="2" fill="#770000" y="81" width="1" x="355"/>
<rect height="95" y="85" fill="#007700" x="356" width="1"/>
<rect width="1" fill="#770000" x="356" y="81" height="4"/>
<rect fill="#007700" x="357" width="1" y="85" height="95"/>
<rect width="1" y="83" height="2" fill="#770000" x="357"/>
<rect x="358" width="1" height="93" y="87" fill="#007700"/>
<rect height="6" y="81" fill="#770000" x="358" width="1"/>
<rect height="95" fill="#007700" width="1" x="359" y="85"/>
<rect width="1" x="359" fill="#770000" height="3" y="82"/>
<rect fill="#007700" x="360" height="97" width="1" y="83"/>
<rect fill="#770000" x="360" height="2" width="1" y="81"/>
<rect fill="#007700" y="81" width="1" x="361" height="99"/>
<rect width="1" fill="#770000" x="361" y="81" height="0"/>
<rect x="362" y="91" height="89" width="1" fill="#007700"/>
<rect width="1" x="362" fill="#770000" height="9" y="82"/>
<rect y="180" width="1" fill="#007700" x="363" height="0"/>
<rect y="176" fill="#770000" height="4" width="1" x="363"/>
<defs>
<linearGradient y1="0%" x2="100%" x1="0%" fill="url(#callableGradient)" id="callableGradient" y2="0%"><stop offset="0%" style="stop-color:#007700;stop-opacity:0.8"/>
<stop offset="100%" style="stop-color:#00aa00;stop-opacity:0.8"/>
</linearGradient>
<linearGradient x2="100%" fill="url(#lowQualGradient)" x1="0%" y1="0%" y2="0%" id="lowQualGradient"><stop offset="0%" style="stop-color:#770000;stop-opacity:0.8"/>
<stop offset="100%" style="stop-color:#aa0000;stop-opacity:0.8"/>
</linearGradient>
</defs>
<rect y="190" fill="url(#callableGradient)" width="20" x="31" height="10"/><text font-size="12" font-family="Arial" x="56" fill="#000000" y="198">Callable Coverage</text>
<rect height="10" y="190" fill="url(#lowQualGradient)" width="20" x="181"/><text fill="#000000" x="206" y="198" font-family="Arial" font-size="12">Low Quality Coverage</text>
<rect x="331" fill="#000000" height="10" y="190" width="20"/><text font-size="12" x="356" fill="#000000" y="198" font-family="Arial">Reference N</text>
</svg>
