<?xml version="1.0" encoding="UTF-8" standalone="no"?>
<svg width="199" style="background:#ffffff" xmlns="http://www.w3.org/2000/svg" height="230">
<text font-weight="bold" text-anchor="middle" x="99" y="20" font-size="16" font-family="Arial" fill="#000000">chrM</text>
<line x1="0" y1="75" stroke="#808080" y2="75" stroke-width="1" x2="199"/>
<rect fill="#F8F8F8" opacity="0.8" height="70" y="0" x="0" width="199"/>
<line x2="0" x1="0" stroke-width="2" y2="90" stroke="#800080" y1="80"/>
<line y1="170" stroke="#800080" x1="0" x2="0" y2="180" stroke-width="2"/>
<rect x="0" width="1" height="100" fill="#007700" y="80"/>
<rect width="1" y="80" fill="#007700" x="1" height="100"/>
<rect x="2" height="100" y="80" width="1" fill="#007700"/>
<rect width="1" x="3" height="100" fill="#007700" y="80"/>
<rect x="4" y="80" fill="#007700" height="100" width="1"/>
<rect height="100" width="1" y="80" fill="#007700" x="5"/>
<rect fill="#007700" y="80" width="1" height="100" x="6"/>
<rect height="100" fill="#007700" y="80" width="1" x="7"/>
<rect width="1" y="80" x="8" height="100" fill="#007700"/>
<rect width="1" fill="#007700" x="9" y="80" height="100"/>
<rect x="10" height="100" fill="#007700" width="1" y="80"/>
<rect y="80" width="1" x="11" height="100" fill="#007700"/>
<rect width="1" x="12" y="80" height="100" fill="#007700"/>
<rect y="80" x="13" width="1" height="100" fill="#007700"/>
<rect x="14" width="1" height="100" fill="#007700" y="80"/>
<rect height="100" y="80" x="15" fill="#007700" width="1"/>
<rect fill="#007700" width="1" y="80" x="16" height="100"/>
<rect fill="#007700" y="80" x="17" width="1" height="100"/>
<rect width="1" x="18" fill="#007700" y="80" height="100"/>
<rect y="80" height="100" fill="#007700" x="19" width="1"/>
<rect x="20" height="100" y="80" width="1" fill="#007700"/>
<rect height="100" width="1" y="80" x="21" fill="#007700"/>
<rect height="100" x="22" y="80" width="1" fill="#007700"/>
<rect width="1" height="100" y="80" x="23" fill="#007700"/>
<rect width="1" x="24" fill="#007700" y="80" height="100"/>
<rect fill="#007700" height="100" x="25" y="80" width="1"/>
<rect x="26" width="1" y="80" height="100" fill="#007700"/>
<rect fill="#007700" y="80" width="1" height="100" x="27"/>
<rect width="1" y="80" height="100" fill="#007700" x="28"/>
<rect width="1" height="100" y="80" x="29" fill="#007700"/>
<rect x="30" height="100" y="80" fill="#007700" width="1"/>
<rect y="80" x="31" height="100" fill="#007700" width="1"/>
<rect y="80" width="1" fill="#007700" height="100" x="32"/>
<rect x="33" y="80" width="1" fill="#007700" height="100"/>
<rect y="80" width="1" x="34" height="100" fill="#007700"/>
<rect y="80" fill="#007700" x="35" height="100" width="1"/>
<rect width="1" fill="#007700" height="100" y="80" x="36"/>
<rect fill="#007700" width="1" y="80" x="37" height="100"/>
<rect fill="#007700" x="38" width="1" height="100" y="80"/>
<rect fill="#007700" y="80" height="100" width="1" x="39"/>
<rect x="40" height="100" y="80" width="1" fill="#007700"/>
<rect fill="#007700" width="1" y="80" x="41" height="100"/>
<rect width="1" y="80" height="100" fill="#007700" x="42"/>
<rect x="43" width="1" y="80" height="100" fill="#007700"/>
<rect y="80" width="1" height="100" x="44" fill="#007700"/>
<rect fill="#007700" y="80" x="45" width="1" height="100"/>
<rect x="46" fill="#007700" y="80" height="100" width="1"/>
<rect fill="#007700" width="1" y="80" height="100" x="47"/>
<rect height="100" x="48" width="1" fill="#007700" y="80"/>
<rect width="1" height="100" fill="#007700" y="80" x="49"/>
<rect fill="#007700" y="80" height="100" x="50" width="1"/>
<rect x="51" height="100" width="1" fill="#007700" y="80"/>
<rect fill="#007700" y="80" height="100" width="1" x="52"/>
<rect width="1" x="53" height="100" fill="#007700" y="80"/>
<rect width="1" x="54" y="80" height="100" fill="#007700"/>
<rect width="1" height="100" fill="#007700" x="55" y="80"/>
<rect y="80" height="100" fill="#007700" x="56" width="1"/>
<rect y="80" width="1" height="100" x="57" fill="#007700"/>
<rect y="80" width="1" fill="#007700" height="100" x="58"/>
<rect y="80" height="100" x="59" width="1" fill="#007700"/>
<rect fill="#007700" y="80" height="100" width="1" x="60"/>
<rect fill="#007700" width="1" height="100" y="80" x="61"/>
<rect width="1" y="80" x="62" fill="#007700" height="100"/>
<rect width="1" height="100" fill="#007700" x="63" y="80"/>
<rect fill="#007700" x="64" width="1" y="80" height="100"/>
<rect height="100" x="65" fill="#007700" y="80" width="1"/>
<rect height="100" y="80" width="1" fill="#007700" x="66"/>
<rect x="67" height="100" width="1" y="80" fill="#007700"/>
<rect x="68" y="80" height="100" fill="#007700" width="1"/>
<rect width="1" height="100" y="80" x="69" fill="#007700"/>
<rect x="70" y="80" fill="#007700" height="100" width="1"/>
<rect fill="#007700" x="71" width="1" height="100" y="80"/>
<rect fill="#007700" y="80" height="100" x="72" width="1"/>
<rect x="73" y="80" width="1" fill="#007700" height="100"/>
<rect y="80" height="100" fill="#007700" width="1" x="74"/>
<rect y="80" x="75" width="1" fill="#007700" height="100"/>
<rect width="1" x="76" fill="#007700" height="100" y="80"/>
<rect x="77" y="80" width="1" height="100" fill="#007700"/>
<rect y="80" x="78" height="100" fill="#007700" width="1"/>
<rect y="80" width="1" fill="#007700" x="79" height="100"/>
<rect width="1" height="100" fill="#007700" x="80" y="80"/>
<rect height="100" y="80" width="1" x="81" fill="#007700"/>
<rect height="100" width="1" y="80" fill="#007700" x="82"/>
<rect width="1" x="83" height="100" fill="#007700" y="80"/>
<rect x="84" width="1" height="100" fill="#007700" y="80"/>
<rect y="80" width="1" x="85" height="100" fill="#007700"/>
<rect height="100" fill="#007700" width="1" x="86" y="80"/>
<rect width="1" fill="#007700" height="100" x="87" y="80"/>
<rect y="80" width="1" height="100" fill="#007700" x="88"/>
<rect fill="#007700" x="89" y="80" height="100" width="1"/>
<rect x="90" width="1" fill="#007700" height="100" y="80"/>
<rect width="1" x="91" fill="#007700" height="100" y="80"/>
<rect width="1" x="92" y="80" height="100" fill="#007700"/>
<rect height="100" fill="#007700" y="80" x="93" width="1"/>
<rect height="100" width="1" fill="#007700" x="94" y="80"/>
<rect height="100" x="95" fill="#007700" width="1" y="80"/>
<rect fill="#007700" x="96" y="80" width="1" height="100"/>
<rect height="100" fill="#007700" x="97" y="80" width="1"/>
<rect y="80" fill="#007700" height="100" x="98" width="1"/>
<rect fill="#007700" x="99" height="100" y="80" width="1"/>
<rect fill="#007700" x="100" width="1" y="80" height="100"/>
<rect height="100" x="101" width="1" fill="#007700" y="80"/>
<rect fill="#007700" height="100" y="80" x="102" width="1"/>
<rect x="103" fill="#007700" width="1" height="100" y="80"/>
<rect y="80" x="104" width="1" height="100" fill="#007700"/>
<rect width="1" y="80" height="100" fill="#007700" x="105"/>
<rect height="100" x="106" y="80" width="1" fill="#007700"/>
<rect y="80" fill="#007700" x="107" height="100" width="1"/>
<rect fill="#007700" width="1" y="80" height="100" x="108"/>
<rect y="80" width="1" height="100" x="109" fill="#007700"/>
<rect height="100" width="1" y="80" fill="#007700" x="110"/>
<rect y="80" width="1" x="111" height="100" fill="#007700"/>
<rect x="112" fill="#007700" y="80" height="100" width="1"/>
<rect x="113" y="80" height="100" width="1" fill="#007700"/>
<rect x="114" width="1" fill="#007700" height="100" y="80"/>
<rect fill="#007700" y="80" width="1" height="100" x="115"/>
<rect fill="#007700" height="100" x="116" y="80" width="1"/>
<rect width="1" height="100" x="117" fill="#007700" y="80"/>
<rect x="118" height="100" y="80" width="1" fill="#007700"/>
<rect fill="#007700" width="1" y="80" x="119" height="100"/>
<rect width="1" x="120" y="80" height="100" fill="#007700"/>
<rect y="80" fill="#007700" height="100" width="1" x="121"/>
<rect fill="#007700" width="1" height="100" x="122" y="80"/>
<rect fill="#007700" height="100" x="123" y="80" width="1"/>
<rect y="80" height="100" x="124" width="1" fill="#007700"/>
<rect x="125" height="100" fill="#007700" width="1" y="80"/>
<rect fill="#007700" width="1" x="126" height="100" y="80"/>
<rect y="80" x="127" width="1" fill="#007700" height="100"/>
<rect fill="#007700" width="1" x="128" y="80" height="100"/>
<rect y="80" x="129" width="1" height="100" fill="#007700"/>
<rect width="1" fill="#007700" x="130" y="80" height="100"/>
<rect y="80" height="100" fill="#007700" width="1" x="131"/>
<rect x="132" fill="#007700" width="1" height="100" y="80"/>
<rect fill="#007700" x="133" width="1" y="80" height="100"/>
<rect fill="#007700" height="100" x="134" width="1" y="80"/>
<rect height="100" x="135" fill="#007700" y="80" width="1"/>
<rect fill="#007700" x="136" width="1" y="80" height="100"/>
<rect width="1" height="100" fill="#007700" x="137" y="80"/>
<rect height="100" width="1" fill="#007700" x="138" y="80"/>
<rect x="139" height="100" y="80" width="1" fill="#007700"/>
<rect fill="#007700" y="80" x="140" width="1" height="100"/>
<rect x="141" y="80" height="100" fill="#007700" width="1"/>
<rect width="1" height="91" fill="#007700" y="89" x="142"/>
<rect height="8" fill="#770000" y="81" width="1" x="142"/>
<rect x="143" width="1" fill="#770000" y="80" height="100"/>
<rect y="80" width="1" fill="#770000" height="100" x="144"/>
<rect width="1" height="65" x="145" fill="#007700" y="115"/>
<rect y="81" x="145" width="1" height="34" fill="#770000"/>
<rect x="146" fill="#007700" height="59" y="121" width="1"/>
<rect height="40" fill="#770000" width="1" x="146" y="81"/>
<rect x="147" y="80" width="1" fill="#770000" height="100"/>
<rect x="148" height="100" width="1" y="80" fill="#770000"/>
<rect fill="#007700" width="1" x="149" y="134" height="46"/>
<rect x="149" width="1" height="53" y="81" fill="#770000"/>
<rect width="1" fill="#007700" x="150" y="80" height="100"/>
<rect height="100" y="80" x="151" width="1" fill="#007700"/>
<rect fill="#007700" y="80" width="1" height="100" x="152"/>
<rect y="80" x="153" height="100" width="1" fill="#007700"/>
<rect width="1" y="80" height="100" fill="#007700" x="154"/>
<rect x="155" fill="#007700" y="80" width="1" height="100"/>
<rect width="1" y="80" x="156" fill="#007700" height="100"/>
<rect y="80" height="100" fill="#007700" width="1" x="157"/>
<rect width="1" height="100" x="158" y="80" fill="#007700"/>
<rect x="159" fill="#007700" y="80" width="1" height="100"/>
<rect y="80" height="100" width="1" fill="#007700" x="160"/>
<rect height="100" fill="#007700" width="1" x="161" y="80"/>
<rect fill="#007700" height="100" width="1" y="80" x="162"/>
<rect height="100" x="163" width="1" y="80" fill="#007700"/>
<rect height="100" fill="#007700" width="1" x="164" y="80"/>
<rect height="100" fill="#007700" width="1" y="80" x="165"/>
<rect height="100" width="1" fill="#007700" y="80" x="166"/>
<rect x="167" height="100" width="1" y="80" fill="#007700"/>
<rect y="80" fill="#007700" x="168" width="1" height="100"/>
<rect width="1" y="80" x="169" height="100" fill="#007700"/>
<rect width="1" height="100" fill="#007700" y="80" x="170"/>
<rect y="80" width="1" height="100" fill="#007700" x="171"/>
<rect x="172" fill="#007700" width="1" height="100" y="80"/>
<rect y="80" fill="#007700" width="1" x="173" height="100"/>
<rect y="80" x="174" height="100" fill="#007700" width="1"/>
<rect x="175" fill="#007700" y="80" height="100" width="1"/>
<rect width="1" x="176" fill="#007700" y="80" height="100"/>
<rect y="80" width="1" fill="#007700" x="177" height="100"/>
<rect y="80" width="1" x="178" height="100" fill="#007700"/>
<rect width="1" x="179" y="80" height="100" fill="#007700"/>
<rect x="180" width="1" y="80" height="100" fill="#007700"/>
<rect x="181" y="80" height="100" fill="#007700" width="1"/>
<rect y="80" x="182" width="1" height="100" fill="#007700"/>
<rect fill="#007700" x="183" width="1" y="80" height="100"/>
<rect x="184" fill="#007700" width="1" height="100" y="80"/>
<rect fill="#007700" width="1" x="185" y="80" height="100"/>
<rect x="186" height="100" y="80" width="1" fill="#007700"/>
<rect x="187" y="80" width="1" height="100" fill="#007700"/>
<rect x="188" y="80" height="100" width="1" fill="#007700"/>
<rect y="80" height="100" fill="#007700" x="189" width="1"/>
<rect x="190" fill="#007700" height="100" width="1" y="80"/>
<rect y="80" x="191" width="1" fill="#007700" height="100"/>
<rect height="100" y="80" x="192" width="1" fill="#007700"/>
<rect fill="#007700" y="80" x="193" height="100" width="1"/>
<rect fill="#007700" height="100" width="1" y="80" x="194"/>
<rect x="195" width="1" fill="#007700" height="100" y="80"/>
<rect x="196" y="80" height="100" fill="#007700" width="1"/>
<rect x="197" width="1" fill="#007700" height="100" y="80"/>
<rect x="198" width="1" height="100" y="80" fill="#007700"/>
<rect y="118" x="199" width="1" height="62" fill="#007700"/>
<defs>
<linearGradient fill="url(#callableGradient)" x1="0%" id="callableGradient" y1="0%" x2="100%" y2="0%"><stop offset="0%" style="stop-color:#007700;stop-opacity:0.8"/>
<stop offset="100%" style="stop-color:#00aa00;stop-opacity:0.8"/>
</linearGradient>
<linearGradient id="lowQualGradient" fill="url(#lowQualGradient)" x1="0%" y1="0%" y2="0%" x2="100%"><stop offset="0%" style="stop-color:#770000;stop-opacity:0.8"/>
<stop offset="100%" style="stop-color:#aa0000;stop-opacity:0.8"/>
</linearGradient>
</defs>
<rect fill="url(#callableGradient)" width="20" height="10" x="2147483597" y="190"/><text y="198" font-size="12" font-family="Arial" fill="#000000" x="2147483622">Callable Coverage</text>
<rect fill="url(#lowQualGradient)" height="10" x="2147483747" y="190" width="20"/><text font-family="Arial" font-size="12" y="198" x="2147483772" fill="#000000">Low Quality Coverage</text>
<rect y="190" width="20" x="2147483897" height="10" fill="#000000"/><text font-family="Arial" y="198" x="2147483922" fill="#000000" font-size="12">Reference N</text>
</svg>
